<svg xmlns="http://www.w3.org/2000/svg" width="138.118" height="121.161" viewBox="0 0 138.118 121.161">
  <g id="Group_2" data-name="Group 2" transform="translate(1056.257 243.516)">
    <path id="Path_1" data-name="Path 1" d="M-991.823-243.516a50.578,50.578,0,0,0-50.574,50.587,50.515,50.515,0,0,0,21.929,41.69c.354.255.7.482,1.05.708.551.368,1.118.722,1.686,1.062.383.212.749.439,1.132.652a50.289,50.289,0,0,0,14.492,5.426c.567.113,1.135.227,1.714.326.666.113,1.332.212,2.011.3s1.346.17,2.026.227c.524.043,1.062.085,1.587.113.623.043,1.234.057,1.857.071.354.014.721.014,1.091.014.438,0,.877,0,1.316-.014.666-.014,1.332-.057,2-.1a48.538,48.538,0,0,0,6.785-.907c1.177-.227,2.337-.51,3.485-.836a50.592,50.592,0,0,0,37-48.731A50.59,50.59,0,0,0-991.823-243.516Zm-13.643,36.024c.113-.241.326-.269.54-.043.411.439.863.85,1.273,1.275.255.269.425.255.68,0,1.459-1.5,2.948-2.975,4.406-4.476.341-.354.552-.184.807.057s.5.467.113.836c-1.842,1.714-3.584,3.513-5.355,5.312-.1.085-.211.17-.283.227-.169.014-.225-.085-.3-.156-.737-.751-1.473-1.5-2.2-2.252C-1006.217-207.166-1005.578-207.251-1005.466-207.492Zm26.377-.609c.4,0,.552.1.567.524,0,.368-.14.453-.482.439h-7.14c-2.351,0-4.717-.014-7.067,0-.4,0-.5-.127-.483-.51.014-.326.129-.453.455-.453,1.062.014,2.109.014,3.159.014Q-984.58-208.087-979.089-208.1Zm-14.959,28.927c-.4,0-.5-.142-.482-.51.014-.326.113-.453.453-.453,1.048.014,2.1.014,3.145.014q5.506,0,11.007-.014c.4,0,.554.1.554.51,0,.382-.143.453-.483.453-2.378-.014-4.745,0-7.125,0v-.014C-989.331-179.189-991.7-179.189-994.049-179.174Zm14.194-8.868c-2.378-.014-4.745-.014-7.125-.014-2.352,0-4.717,0-7.069.014-.4,0-.5-.142-.482-.51.014-.34.113-.453.453-.453,1.048.014,2.1,0,3.145,0,3.67,0,7.338.014,11.007,0,.4,0,.554.085.554.51C-979.371-188.113-979.515-188.042-979.854-188.042Zm0-10.256c-2.378-.014-4.745,0-7.125,0v-.014c-2.352,0-4.717,0-7.069.014-.4,0-.5-.142-.482-.51.014-.326.113-.453.453-.453,1.048.014,2.1.014,3.145.014q5.506,0,11.007-.014c.4,0,.554.1.554.51C-979.371-198.369-979.515-198.3-979.854-198.3ZM-997.647-201c-1.842,1.714-3.584,3.513-5.355,5.312-.1.085-.211.17-.283.227-.169.014-.225-.085-.3-.156-.737-.751-1.473-1.5-2.2-2.252-.439-.453.2-.538.312-.779s.326-.269.54-.043c.411.439.863.85,1.273,1.275.255.269.425.255.68,0,1.459-1.5,2.948-2.975,4.406-4.476.341-.354.552-.184.807.057S-997.264-201.372-997.647-201Zm0,10.256c-1.842,1.714-3.584,3.513-5.355,5.312-.1.085-.211.17-.283.227-.169.014-.225-.085-.3-.156-.737-.751-1.473-1.5-2.2-2.252-.439-.453.2-.538.312-.779s.326-.269.54-.042c.411.439.863.85,1.273,1.275.255.269.425.255.68,0,1.459-1.5,2.948-2.975,4.406-4.476.341-.354.552-.184.807.057S-997.264-191.116-997.647-190.748Zm-7.82,11.219c.113-.241.326-.269.54-.043.411.439.863.85,1.273,1.275.255.269.425.255.68,0,1.459-1.5,2.948-2.975,4.406-4.476.341-.354.552-.184.807.057s.5.467.113.836c-1.842,1.714-3.584,3.513-5.355,5.312-.1.085-.211.17-.283.227-.169.014-.225-.085-.3-.156-.737-.751-1.473-1.5-2.2-2.252C-1006.217-179.2-1005.578-179.288-1005.466-179.529Z" transform="translate(5.774 0)" fill="#39b54a"/>
    <path id="Path_2" data-name="Path 2" d="M-988.023-226.026h-5.537a2.425,2.425,0,0,1,.126.793c.028.623-.028,1.261.028,1.884.028.552-.17.708-.708.708-3.258-.028-6.545-.028-9.817-.028-1.842,0-3.7,0-5.566.028-.411,0-.68-.085-.54-.595v-1.332c.071-.014.157-.043.157-.142s-.086-.113-.157-.113v-.368a1.8,1.8,0,0,1,.071-.836h-5.5a3.991,3.991,0,0,0-3.995,3.995v43.064a3.991,3.991,0,0,0,3.995,3.995h27.439a3.991,3.991,0,0,0,4-3.995v-43.064A3.991,3.991,0,0,0-988.023-226.026Zm-19.181,36.86c-1.842,1.714-3.584,3.513-5.355,5.312-.1.085-.211.17-.283.227-.169.014-.225-.085-.3-.156-.737-.751-1.473-1.5-2.2-2.252-.439-.453.2-.538.312-.779s.326-.269.54-.043c.411.439.863.85,1.273,1.275.255.269.425.255.68,0,1.459-1.5,2.948-2.975,4.406-4.476.341-.354.552-.184.807.057S-1006.821-189.535-1007.2-189.166Zm0-8.868c-1.842,1.714-3.584,3.513-5.355,5.312-.1.085-.211.17-.283.227-.169.014-.225-.085-.3-.156-.737-.751-1.473-1.5-2.2-2.252-.439-.453.2-.538.312-.779s.326-.269.54-.042c.411.439.863.85,1.273,1.275.255.269.425.255.68,0,1.459-1.5,2.948-2.975,4.406-4.476.341-.354.552-.184.807.057S-1006.821-198.4-1007.2-198.034Zm0-10.256c-1.842,1.714-3.584,3.513-5.355,5.312-.1.085-.211.17-.283.227-.169.014-.225-.085-.3-.156-.737-.751-1.473-1.5-2.2-2.252-.439-.453.2-.538.312-.779s.326-.269.54-.043c.411.439.863.85,1.273,1.275.255.269.425.255.68,0,1.459-1.5,2.948-2.975,4.406-4.476.341-.354.552-.184.807.057S-1006.821-208.659-1007.2-208.29Zm0-8.84c-1.842,1.714-3.584,3.513-5.355,5.312-.1.085-.211.17-.283.227-.169.014-.225-.085-.3-.156-.737-.751-1.473-1.5-2.2-2.252-.439-.453.2-.538.312-.779s.326-.269.54-.043c.411.439.863.85,1.273,1.275.255.269.425.255.68,0,1.459-1.5,2.948-2.975,4.406-4.476.341-.354.552-.184.807.057S-1006.821-217.5-1007.2-217.13Zm17.792,30.669c-2.378-.014-4.745,0-7.125,0v-.014c-2.352,0-4.717,0-7.069.014-.4,0-.5-.142-.482-.51.014-.326.113-.453.453-.453,1.048.014,2.1.014,3.145.014q5.506,0,11.007-.014c.4,0,.554.1.554.51C-988.928-186.531-989.071-186.461-989.411-186.461Zm0-8.868c-2.378-.014-4.745-.014-7.125-.014-2.352,0-4.717,0-7.069.014-.4,0-.5-.142-.482-.51.014-.34.113-.453.453-.453,1.048.014,2.1,0,3.145,0,3.67,0,7.338.014,11.007,0,.4,0,.554.085.554.51C-988.928-195.4-989.071-195.328-989.411-195.328Zm0-10.256c-2.378-.014-4.745,0-7.125,0v-.014c-2.352,0-4.717,0-7.069.014-.4,0-.5-.142-.482-.51.014-.326.113-.453.453-.453,1.048.014,2.1.014,3.145.014q5.506,0,11.007-.014c.4,0,.554.1.554.51C-988.928-205.655-989.071-205.585-989.411-205.585Zm.85-8.84h-7.14c-2.351,0-4.717-.014-7.067,0-.4,0-.5-.127-.483-.51.014-.326.129-.453.455-.453,1.062.014,2.109.014,3.159.014q5.5,0,10.991-.014c.4,0,.552.1.567.524C-988.079-214.495-988.22-214.41-988.561-214.424Z" transform="translate(15.331 7.286)" fill="#fefefc"/>
    <path id="Path_3" data-name="Path 3" d="M-997.258-223.923a2.131,2.131,0,0,0-1.9-2.182,6.071,6.071,0,0,0-1.431-.043c-.425.014-.567-.113-.567-.552a3.318,3.318,0,0,0-1.657-2.9,3.687,3.687,0,0,0-4.845.949v.014a2.7,2.7,0,0,0-.694,1.983c0,.382-.1.538-.5.524a10.179,10.179,0,0,0-1.473.057c-.354.028-.735.028-.963.4l-.014.014a1.719,1.719,0,0,0-.919,1.785v.34c.071,0,.14.014.14.1s-.069.113-.14.128v1.2c-.129.453.112.524.494.524,1.673-.014,3.343-.014,5-.014q4.441,0,8.854.014c.482,0,.651-.142.625-.637C-997.286-222.776-997.242-223.356-997.258-223.923Zm-5.85-2.238h-1.643c-.524,0-1.062-.028-1.587,0-.411.014-.482-.156-.439-.538a1.954,1.954,0,0,1,2.111-1.842,2.011,2.011,0,0,1,1.969,1.969C-1002.668-226.246-1002.811-226.161-1003.108-226.161Z" transform="translate(18.333 5.58)" fill="#fefefd"/>
    <g id="Group_1" data-name="Group 1" transform="translate(-1056.257 -156.764)">
      <path id="Path_4" data-name="Path 4" d="M-1033.974-181.748a7.57,7.57,0,0,0-2.139-.2,55.79,55.79,0,0,0-9.815.921,67.987,67.987,0,0,0-7.1,1.672c-.752.241-1.121.623-1.121,1.147a.727.727,0,0,0,.184.5.846.846,0,0,0,.708.382,3.2,3.2,0,0,0,1.007-.227,55.973,55.973,0,0,1,6.729-1.431l-.483.779q-2.635,4.207-3.329,5.383c-1.146,1.9-2.394,4.221-3.754,7q-3.166,6.46-3.173,8.117a1.442,1.442,0,0,0,.255.807,1.123,1.123,0,0,0,.95.581c.409,0,.693-.383.863-1.147a55.294,55.294,0,0,1,3.5-8.627,91.9,91.9,0,0,1,6.588-11.446,2.8,2.8,0,0,0,.58-1.247.617.617,0,0,0-.453-.567,32.9,32.9,0,0,1,5.978-.538c1.473-.042,2.564-.1,3.286-.17.836-.1,1.247-.425,1.247-.992A.693.693,0,0,0-1033.974-181.748Z" transform="translate(1056.257 182.413)"/>
      <path id="Path_5" data-name="Path 5" d="M-1038.639-169.088a3.067,3.067,0,0,0,.511-1.261,1.325,1.325,0,0,0-.269-.666,3.1,3.1,0,0,0,.3-1.1,1.308,1.308,0,0,0-.426-.949,1.816,1.816,0,0,0-1.275-.467,4.348,4.348,0,0,0-2.52.935,11.816,11.816,0,0,0-3.416,4.165A9.8,9.8,0,0,0-1047-164a2.8,2.8,0,0,0,.34,1.417,1.69,1.69,0,0,0,1.531.921,3.1,3.1,0,0,0,2.265-1.417,13.194,13.194,0,0,0,1.176-1.771,11.985,11.985,0,0,0-.071,1.2,2.641,2.641,0,0,0,.581,1.771,2.1,2.1,0,0,0,1.687.864.89.89,0,0,0,.622-.227.734.734,0,0,0,.255-.567.768.768,0,0,0-.453-.765,3.017,3.017,0,0,1-.737-.411,1.8,1.8,0,0,1-.452-1.247,7.615,7.615,0,0,1,.565-2.507A12.564,12.564,0,0,1-1038.639-169.088Zm-1.3-1.2a15.991,15.991,0,0,0-.934,1.7,30.051,30.051,0,0,1-1.616,3c-.765,1.232-1.445,1.842-2.026,1.842a.564.564,0,0,1-.51-.241,1.144,1.144,0,0,1-.183-.68,8.683,8.683,0,0,1,1.785-4.519c1.077-1.6,2.067-2.408,2.988-2.408a.9.9,0,0,1,.554.184,1.95,1.95,0,0,1,.466.595A2.6,2.6,0,0,0-1039.942-170.292Z" transform="translate(1060.115 185.917)"/>
      <path id="Path_6" data-name="Path 6" d="M-1030.055-173.4a2.985,2.985,0,0,0-1.686-.4,6.968,6.968,0,0,0-4.05,1.346,3.956,3.956,0,0,0-1.985,3.216,5.266,5.266,0,0,0,1.2,3.017,3.787,3.787,0,0,1,.865,1.983,1.592,1.592,0,0,1-.327,1.02,1.384,1.384,0,0,1-1.1.467,1.806,1.806,0,0,1-1.289-.552,2,2,0,0,1-.637-1.5,3.783,3.783,0,0,1,.426-1.827,1.155,1.155,0,0,0,.154-.439c0-.241-.14-.354-.453-.354a1.293,1.293,0,0,0-.977.623,3.872,3.872,0,0,0-.722,2.38,3.556,3.556,0,0,0,.637,2.111,3.082,3.082,0,0,0,2.649,1.247,3.492,3.492,0,0,0,1.97-.567,2.8,2.8,0,0,0,1.417-2.493,4.859,4.859,0,0,0-1.078-2.621,4.5,4.5,0,0,1-.949-2.352,2.725,2.725,0,0,1,1.459-2.281,4.235,4.235,0,0,1,2.323-.864,1.026,1.026,0,0,1,.653.184.728.728,0,0,1,.225.567,1.212,1.212,0,0,1-.5.907,2.7,2.7,0,0,1-1.232.637q-1.126.255-1.231.3a.76.76,0,0,0-.439.694c0,.453.254.666.765.666a4.444,4.444,0,0,0,1.4-.3,5.329,5.329,0,0,0,2.281-1.53,3.3,3.3,0,0,0,.793-2.068A1.391,1.391,0,0,0-1030.055-173.4Z" transform="translate(1062.764 185.809)"/>
      <path id="Path_7" data-name="Path 7" d="M-1024.888-170.044a41.916,41.916,0,0,0,4.717-4.689,12.39,12.39,0,0,0,1.007-1.317A7.71,7.71,0,0,0-1017.55-180a1.319,1.319,0,0,0-.4-.977.949.949,0,0,0-.708-.326,4.417,4.417,0,0,0-2.366,1.119,17.9,17.9,0,0,0-3.017,3.032c-.227.283-.467.581-.708.892a63.069,63.069,0,0,0-7.181,12.112,22.2,22.2,0,0,0-1.9,4.845.822.822,0,0,0,.2.5.555.555,0,0,0,.467.241c.354,0,.737-.34,1.162-1.034a23.977,23.977,0,0,1,3.57-4.788,13.244,13.244,0,0,0-.425,2.748,5.309,5.309,0,0,0,.425,2.1,2.03,2.03,0,0,0,1.983,1.36c1.544,0,3.145-1.062,4.789-3.173,1.1-1.431,1.67-2.366,1.67-2.833a.371.371,0,0,0-.425-.411c-.283,0-.566.241-.891.722a13.579,13.579,0,0,1-1.786,2.139,4.4,4.4,0,0,1-2.847,1.657,1.1,1.1,0,0,1-.963-.623,2.335,2.335,0,0,1-.3-1.232,13.136,13.136,0,0,1,1.19-4.448,11,11,0,0,1,2.819-1.374c.554-.156.823-.439.823-.836a.513.513,0,0,0-.2-.425.578.578,0,0,0-.424-.184,4.4,4.4,0,0,0-1.4.411,14.59,14.59,0,0,0-2.309,1.218,24.833,24.833,0,0,0-3.584,3.371q1.084-2.274,1.318-2.762A32.633,32.633,0,0,0-1024.888-170.044Zm1.6-6.035c.1-.127.2-.255.3-.368,1.486-1.842,2.563-2.762,3.2-2.762.256,0,.383.142.383.425a3.524,3.524,0,0,1-.552,1.388,15.711,15.711,0,0,1-1.344,2.012q-.342.446-.724.892a26.306,26.306,0,0,1-5.537,4.986A48.545,48.545,0,0,1-1023.287-176.079Z" transform="translate(1065.601 182.68)"/>
      <path id="Path_8" data-name="Path 8" d="M-992.115-181.936a1.059,1.059,0,0,0-.807-.34,3.015,3.015,0,0,0-1.969,1.232c-1.231,1.36-2.607,3.06-4.121,5.071-2.636,3.485-4.535,6.148-5.739,8,0,.014-.014.014-.014.028-1.4,2.139-2.281,3.5-2.662,4.066a27.021,27.021,0,0,1,1.075-4.179c.269-.807.6-1.672.95-2.592a57.98,57.98,0,0,1,4.008-7.975,4.249,4.249,0,0,0,.765-1.8,1.137,1.137,0,0,0-.424-.864,1.054,1.054,0,0,0-.708-.326,2.42,2.42,0,0,0-1.46.85c-.567.552-1.6,1.771-3.088,3.626a84.666,84.666,0,0,0-5.794,8.23c-1.233,1.969-2.366,3.995-3.428,6.063-.509.992-1.247,2.621-2.194,4.873a7.723,7.723,0,0,0-.68,1.884.555.555,0,0,0,.154.4.515.515,0,0,0,.455.241c.708,0,1.33-.652,1.883-1.955,1.077-2.564,2.013-4.618,2.776-6.148.85-1.7,1.771-3.371,2.748-5.029.864-1.445,1.771-2.89,2.72-4.306a31.785,31.785,0,0,1,3.513-4.335,64.025,64.025,0,0,0-4.222,8.939,16.723,16.723,0,0,0-1.161,5.326,1.73,1.73,0,0,0,.228.921,1.054,1.054,0,0,0,1,.609,2.246,2.246,0,0,0,1.459-.68,12.576,12.576,0,0,0,1.969-2.621c.666-1.091,1.332-2.139,1.971-3.145a76.49,76.49,0,0,1,7.946-10.568q-3.462,6.1-5.539,10.568-3.017,6.545-3.017,9.59a2.587,2.587,0,0,0,.269,1.275.967.967,0,0,0,.836.595,1,1,0,0,0,.779-.411,1.445,1.445,0,0,0,.4-.977c0-.085-.028-.368-.085-.836a2.515,2.515,0,0,1-.028-.453,11.866,11.866,0,0,1,.625-3.074c.537-1.672,1.274-3.612,2.223-5.808.368-.836.765-1.728,1.2-2.649.567-1.218,1.658-3.23,3.245-6.063.905-1.572,1.388-2.451,1.486-2.621a4.805,4.805,0,0,0,.751-1.941A.9.9,0,0,0-992.115-181.936Z" transform="translate(1072.025 182.276)"/>
      <path id="Path_9" data-name="Path 9" d="M-994.429-169.088a3.056,3.056,0,0,0,.51-1.261,1.321,1.321,0,0,0-.268-.666,3.09,3.09,0,0,0,.3-1.1,1.306,1.306,0,0,0-.425-.949,1.713,1.713,0,0,0-.425-.283,1.866,1.866,0,0,0-.85-.184,4.379,4.379,0,0,0-2.52.935c-.044.028-.072.057-.115.085a11.762,11.762,0,0,0-3.286,4.08,9.653,9.653,0,0,0-1.275,4.434,2.8,2.8,0,0,0,.34,1.417,1.691,1.691,0,0,0,1.531.921,3.077,3.077,0,0,0,2.265-1.417,13.229,13.229,0,0,0,1.176-1.771c-.043.552-.071.949-.071,1.2a2.718,2.718,0,0,0,.582,1.771,2.1,2.1,0,0,0,1.686.864.95.95,0,0,0,.636-.227.733.733,0,0,0,.255-.567.79.79,0,0,0-.452-.765,3.258,3.258,0,0,1-.752-.411,1.8,1.8,0,0,1-.453-1.247,7.624,7.624,0,0,1,.567-2.507A13.56,13.56,0,0,1-994.429-169.088Zm-1.3-1.2a14.419,14.419,0,0,0-.921,1.7c-.652,1.317-1.19,2.323-1.615,3-.779,1.232-1.459,1.842-2.04,1.842a.563.563,0,0,1-.51-.241,1.157,1.157,0,0,1-.17-.68,8.655,8.655,0,0,1,1.771-4.519c1.077-1.6,2.068-2.408,2.99-2.408a.893.893,0,0,1,.551.184,1.741,1.741,0,0,1,.468.595A2.6,2.6,0,0,0-995.732-170.292Z" transform="translate(1078.532 185.917)"/>
      <path id="Path_10" data-name="Path 10" d="M-986.164-171.827c0-.51-.225-.779-.708-.779-.85,0-2.55,1.232-5.071,3.7-.14.156-.3.3-.453.439a19.633,19.633,0,0,1,1.232-2.012,2.276,2.276,0,0,0,.526-1.147.752.752,0,0,0-.256-.567.611.611,0,0,0-.452-.227c-.327,0-.724.34-1.176,1.006a33.24,33.24,0,0,0-1.885,3.258c-1.487,2.762-2.238,4.476-2.238,5.128a.871.871,0,0,0,.256.652.653.653,0,0,0,.509.227c.411,0,.793-.326,1.162-.963a14.428,14.428,0,0,1,4.59-5.581,10.485,10.485,0,0,0-1.856,5.411,4.472,4.472,0,0,0,.5,2.167,1.463,1.463,0,0,0,1.247.935.758.758,0,0,0,.568-.255.563.563,0,0,0,.211-.411,1.373,1.373,0,0,0-.255-.652,3.759,3.759,0,0,1-.538-1.912c0-2.054,1.147-4.42,3.458-7.125A2.14,2.14,0,0,0-986.164-171.827Z" transform="translate(1081.09 186.304)"/>
      <path id="Path_11" data-name="Path 11" d="M-980.9-169.088a3.056,3.056,0,0,0,.51-1.261,1.314,1.314,0,0,0-.269-.666,3.077,3.077,0,0,0,.3-1.1,1.308,1.308,0,0,0-.426-.949,1.814,1.814,0,0,0-1.274-.467,4.386,4.386,0,0,0-2.523.935,11.666,11.666,0,0,0-3.4,4.165A9.637,9.637,0,0,0-989.257-164a2.811,2.811,0,0,0,.34,1.417,1.689,1.689,0,0,0,1.53.921,3.078,3.078,0,0,0,2.267-1.417,13.217,13.217,0,0,0,1.176-1.771c-.042.552-.071.949-.071,1.2a2.648,2.648,0,0,0,.581,1.771,2.1,2.1,0,0,0,1.686.864.951.951,0,0,0,.637-.227.733.733,0,0,0,.255-.567.792.792,0,0,0-.453-.765,3.179,3.179,0,0,1-.75-.411,1.793,1.793,0,0,1-.455-1.247,7.62,7.62,0,0,1,.567-2.507A13.561,13.561,0,0,1-980.9-169.088Zm-1.3-1.2a14.052,14.052,0,0,0-.919,1.7c-.653,1.317-1.191,2.323-1.616,3-.779,1.232-1.459,1.842-2.04,1.842a.562.562,0,0,1-.51-.241,1.157,1.157,0,0,1-.169-.68,8.643,8.643,0,0,1,1.771-4.519c1.077-1.6,2.067-2.408,2.988-2.408a.9.9,0,0,1,.554.184,1.778,1.778,0,0,1,.468.595A2.543,2.543,0,0,0-982.2-170.292Z" transform="translate(1084.169 185.917)"/>
      <path id="Path_12" data-name="Path 12" d="M-970.02-169.126c-.2,0-.411.156-.594.467a19.219,19.219,0,0,1-1.985,2.734,15.032,15.032,0,0,1-2.874,2.578,29.552,29.552,0,0,1,1.686-3.286q1.082-1.849,1.571-2.507a.676.676,0,0,0,.186-.368c0-.127-.143-.326-.412-.595a5.308,5.308,0,0,0,.552-2.068,1.385,1.385,0,0,0-.34-1.02,1.63,1.63,0,0,0-1.217-.524,5.427,5.427,0,0,0-3.173,1.431,14.087,14.087,0,0,0-3.656,4.675,7.715,7.715,0,0,0-1.077,3.357,2.3,2.3,0,0,0,.269,1.091,1.332,1.332,0,0,0,1.218.793c.836,0,1.885-.666,3.159-2-.3.652-.708,1.53-1.232,2.649q-4.122,2.295-4.7,2.72-3.657,2.614-3.656,5.468a2.4,2.4,0,0,0,.283,1.19,1.758,1.758,0,0,0,1.672.907q2.21,0,4.717-3.91.935-1.487,2.932-5.666a18.75,18.75,0,0,0,6.419-6.077,3.779,3.779,0,0,0,.693-1.629C-969.581-168.985-969.723-169.126-970.02-169.126Zm-11.262,13.5c-1,1.615-1.884,2.422-2.621,2.422a.621.621,0,0,1-.567-.326.866.866,0,0,1-.113-.425,1.83,1.83,0,0,1,.113-.538,5.786,5.786,0,0,1,1.218-2.04,11.7,11.7,0,0,1,4.221-3.074C-979.667-158.346-980.4-157.014-981.282-155.626Zm5.681-11.9c0,.014-.113.2-.324.538a14.528,14.528,0,0,1-1.234,1.629c-.765.878-1.36,1.3-1.785,1.3a.546.546,0,0,1-.411-.156.722.722,0,0,1-.142-.5,4.78,4.78,0,0,1,.467-1.672,13.084,13.084,0,0,1,2.677-3.924c.978-.992,1.714-1.487,2.24-1.487.3,0,.452.156.452.482a2.539,2.539,0,0,1-.452,1.162,8.67,8.67,0,0,1-1.473,1.813.661.661,0,0,0-.269.425C-975.855-167.837-975.772-167.71-975.6-167.525Z" transform="translate(1085.402 185.842)"/>
      <path id="Path_13" data-name="Path 13" d="M-964.758-167.688a.445.445,0,0,0-.354-.2c-.256,0-.54.2-.894.595-1.983,2.323-3.724,3.485-5.241,3.485a1.645,1.645,0,0,1-1.487-.68,1.234,1.234,0,0,1-.2-.68v-.34a9.462,9.462,0,0,0,5.509-3.995,4.7,4.7,0,0,0,.894-2.366,1.191,1.191,0,0,0-.483-.992,1.347,1.347,0,0,0-.849-.3c-1.162,0-2.523.807-4.081,2.394a8.666,8.666,0,0,0-2.876,6.006,2.694,2.694,0,0,0,.526,1.771,2.606,2.606,0,0,0,2.138.949,6.1,6.1,0,0,0,2.862-.836,12.962,12.962,0,0,0,2.9-2.153c1.162-1.133,1.742-1.927,1.742-2.394A.452.452,0,0,0-964.758-167.688Zm-5.186-2.847a2.5,2.5,0,0,1,1.347-.708c.225,0,.339.113.339.354a1.432,1.432,0,0,1-.269.779,8.179,8.179,0,0,1-2.011,2.224,7.706,7.706,0,0,1-2,.977A9.286,9.286,0,0,1-969.944-170.535Z" transform="translate(1090.184 186.075)"/>
      <path id="Path_14" data-name="Path 14" d="M-955.1-170.229a.483.483,0,0,0-.3-.142,1.056,1.056,0,0,0-.538.212,6.16,6.16,0,0,1-2.692,1.289c-.312,0-.468-.127-.468-.411,0-.5.623-1.232,1.856-2.21q.68-.574.68-.892a.745.745,0,0,0-.156-.4c-.184-.269-.368-.4-.552-.4a1.729,1.729,0,0,0-.6.269,15.785,15.785,0,0,0-1.771,1.218,35.251,35.251,0,0,0-4.107,3.711,9.946,9.946,0,0,1,1.259-2.125c.6-.751.907-1.147.963-1.2a1.448,1.448,0,0,0,.354-.765.51.51,0,0,0-.241-.453.665.665,0,0,0-.425-.142c-.466,0-1.062.453-1.757,1.36a24.875,24.875,0,0,0-3.272,6.176,14.61,14.61,0,0,0-1.047,3.3c0,.425.225.637.664.637.411,0,.765-.283,1.034-.836a25.358,25.358,0,0,1,2.238-3.754,17.791,17.791,0,0,1,3.371-3.485,2,2,0,0,0-.382,1.034.983.983,0,0,0,.412.907,1.942,1.942,0,0,0,1.077.312,5.1,5.1,0,0,0,3.03-1.2c1.006-.737,1.516-1.3,1.516-1.657A.534.534,0,0,0-955.1-170.229Z" transform="translate(1093.063 186.067)"/>
    </g>
  </g>
</svg>
